<?xml version="1.0" encoding="utf-8"?>
<!-- Generator: Adobe Illustrator 19.0.0, SVG Export Plug-In . SVG Version: 6.00 Build 0)  -->
<svg version="1.1" id="Capa_1" xmlns="http://www.w3.org/2000/svg" xmlns:xlink="http://www.w3.org/1999/xlink" x="0px" y="0px"
	 viewBox="380.1 375.4 329.1 92.4" style="enable-background:new 380.1 375.4 329.1 92.4;" xml:space="preserve">
<style type="text/css">
	.st0{fill:#FFFFFF;}
</style>
<path class="st0" d="M396.9,462.4c1-0.3,2-1.4,2-2.7c0-1.1-0.3-1.9-1-2.4c-0.8-0.6-1.7-0.9-3-0.9c-0.2,0-0.4,0-0.7,0
	c-1.5,0-2.7,0.1-3.5,0.2v11.1h2.6v-4.4h0.8c0.2,0,0.6,0,0.8,0.1c0.6,0.1,0.8,0.7,1.1,1.7c0.2,1.3,0.6,2.2,0.7,2.6h2.7
	c-0.2-0.5-0.6-1.9-0.9-3.2C398.2,463.5,397.7,462.7,396.9,462.4z M394.9,461.3c-0.2,0-0.3,0.1-0.6,0.1h-1v-3.2c0.2,0,0.6,0,1.1,0
	c0.1,0,0.3,0,0.4,0c0.9,0.1,1.5,0.6,1.5,1.5C396.4,460.7,395.8,461.2,394.9,461.3z M387.8,457.3c-0.6-0.6-1.6-0.8-2.8-0.9
	c-0.2,0-0.4,0-0.7,0c-1.6,0-2.7,0.1-3.5,0.2v11.1h2.6v-4.1c0.2,0.1,0.6,0.1,0.9,0.1c0.2,0,0.4,0,0.7,0c1.2-0.1,2.2-0.6,3-1.2
	c0.7-0.6,1-1.5,1-2.6C389.1,458.7,388.6,457.8,387.8,457.3z M385,461.7c-0.2,0-0.4,0.1-0.8,0.1c-0.3,0-0.6-0.1-0.8-0.1v-3.3
	c0.1-0.1,0.6-0.1,1-0.1c0.2,0,0.3,0,0.6,0c1,0.1,1.5,0.8,1.5,1.6C386.5,460.9,385.9,461.5,385,461.7z M519.3,456.5h-1.6l-3.6,11.2
	h2.7l0.8-2.9h1.7h1.7l0.9,2.9h2.8l-3.6-11.2H519.3z M519.3,462.9H518l0.7-2.5c0.1-0.6,0.3-1.5,0.5-2.1h0.1v0.1
	c0.2,0.6,0.3,1.5,0.6,2l0.7,2.5H519.3z M508.8,456.5h-2.7v11.2h7.2v-2.1h-4.5V456.5z M459.7,462.9h4.3v-2h-4.3v-2.4h4.5v-2h-7.1
	v11.2h7.3v-2.1h-4.7L459.7,462.9L459.7,462.9z M443.7,456.5H442l-3.5,11.2h2.7l0.8-2.9h1.7h1.7l0.9,2.9h2.8l-3.6-11.2H443.7z
	 M443.7,462.9h-1.2l0.7-2.5c0.1-0.6,0.3-1.5,0.4-2.1h0.1v0.1c0.1,0.6,0.3,1.5,0.6,2l0.7,2.5H443.7z M400.9,467.7h2.6v-11.2h-2.6
	V467.7z M414.1,456.5l-1.2,3.7c-0.3,1.2-0.8,2.7-1.1,4c-0.2-1.2-0.7-2.7-1-4l-1.1-3.7h-3.5l-0.7,11.2h2.4l0.2-4.3
	c0.1-1.4,0.1-3.2,0.2-4.6c0.3,1.5,0.7,3,1,4.4l1.2,4.3h2l1.5-4.4c0.4-1.2,0.9-2.8,1.2-4.3h0.1c0,1.7,0,3.3,0.1,4.6l0.1,4.3h2.6
	l-0.7-11.2H414.1z M422.7,462.9h4.2v-2h-4.2v-2.4h4.4v-2h-7v11.2h7.3v-2.1h-4.7L422.7,462.9L422.7,462.9z M499.7,462.9h4.2v-2h-4.2
	v-2.4h4.4v-2H497v11.2h7.4v-2.1h-4.7L499.7,462.9L499.7,462.9z M492.2,462.9c0,1.9-0.7,2.8-2.1,2.8c-1.2,0-2-0.9-2-2.8v-6.4h-2.6
	v6.2c0,3.5,1.7,5.1,4.6,5.1s4.7-1.6,4.7-5.1v-6.2h-2.6V462.9z M481.2,458.3c0.9,0,1.7,0.2,2.1,0.4l0.6-2c-0.4-0.2-1.5-0.4-2.8-0.4
	c-3.5,0-6.3,2.1-6.3,5.9c0,3.3,2,5.6,6.1,5.6c1.3,0,2.4-0.2,2.9-0.5l-0.5-2c-0.4,0.2-1.3,0.5-2.1,0.5c-2.4,0-3.7-1.5-3.7-3.7
	C477.5,459.5,479.1,458.3,481.2,458.3z M470.7,461c-1.6-0.6-2.1-0.9-2.1-1.6c0-0.6,0.5-1.1,1.6-1.1s2,0.3,2.5,0.6l0.6-2
	c-0.7-0.3-1.7-0.6-2.9-0.6c-2.7,0-4.4,1.5-4.4,3.4c0,1.6,1.2,2.6,3.1,3.3c1.5,0.5,1.9,0.9,1.9,1.6c0,0.8-0.6,1.2-1.8,1.2
	c-1.1,0-2.1-0.3-2.8-0.7l-0.6,2c0.7,0.3,1.9,0.7,3.3,0.7c3.1,0,4.6-1.6,4.6-3.4C473.6,462.8,472.7,461.7,470.7,461z M435.4,462.4
	c1-0.3,2-1.4,2-2.7c0-1.1-0.4-1.9-1.1-2.4c-0.7-0.6-1.7-0.9-3-0.9c-0.2,0-0.4,0-0.7,0c-1.3,0-2.6,0.1-3.5,0.2v11.1h2.6v-4.4h0.8
	c0.3,0,0.6,0,0.8,0.1c0.6,0.1,0.9,0.7,1.1,1.7c0.3,1.3,0.6,2.2,0.8,2.6h2.7c-0.2-0.5-0.6-1.9-1-3.2
	C436.6,463.5,436.2,462.7,435.4,462.4z M433.3,461.3c-0.1,0-0.3,0.1-0.6,0.1h-1v-3.2c0.2,0,0.6,0,1.2,0c0.1,0,0.2,0,0.3,0
	c1,0.1,1.6,0.6,1.6,1.5C434.9,460.7,434.3,461.2,433.3,461.3z M667.7,462.9h4.3v-2h-4.3v-2.4h4.5v-2h-7.1v11.2h7.3v-2.1h-4.7V462.9z
	 M632.3,456.5h-2.6v11.2h7.2v-2.1h-4.6L632.3,456.5L632.3,456.5z M659.1,456.5l-1.1,3.7c-0.5,1.2-0.8,2.7-1.1,4h-0.1
	c-0.2-1.2-0.6-2.7-0.9-4l-1.1-3.7h-3.5l-0.8,11.2h2.5l0.2-4.3c0-1.4,0.1-3.2,0.1-4.6h0.1c0.2,1.5,0.7,3,1,4.4l1.2,4.3h2l1.3-4.4
	c0.5-1.2,1-2.8,1.3-4.3c0,1.7,0.1,3.3,0.1,4.6l0.2,4.3h2.5l-0.6-11.2H659.1z M635.8,458.5h3v9.1h2.6v-9.1h3.1v-2h-8.8v2H635.8z
	 M646,467.7h2.6v-11.2H646V467.7z M695.2,456.5h-1.6l-3.6,11.2h2.7l0.8-2.9h1.7h1.7l0.9,2.9h2.8l-3.6-11.2H695.2z M695.2,462.9H694
	l0.7-2.5c0.1-0.6,0.3-1.5,0.6-2.1v0.1c0.2,0.6,0.3,1.5,0.6,2l0.7,2.5H695.2z M540.8,457.5c-0.8-0.6-1.8-0.9-3.3-1.1
	c-0.4,0-0.9,0-1.5,0c-1.3,0-2.6,0.1-3.5,0.2v11c0.6,0.1,1.6,0.2,2.9,0.2c0.8,0,1.5-0.1,2-0.1c1.3-0.2,2.5-0.7,3.3-1.4
	c1.1-0.9,1.9-2.4,1.9-4.5C542.7,459.8,542.1,458.4,540.8,457.5z M537.6,465.6c-0.4,0.1-0.9,0.1-1.5,0.1c-0.3,0-0.7,0-0.9,0v-7.3
	c0.2-0.1,0.6-0.1,1.1-0.1c0.4,0,0.9,0,1.2,0.1c1.6,0.5,2.5,1.5,2.5,3.5C540.1,463.9,539.2,465.2,537.6,465.6z M686.1,467.7h2.6
	v-11.2h-2.6V467.7z M682.4,457.5c-0.8-0.6-1.8-0.9-3.1-1.1c-0.6,0-1,0-1.6,0c-1.2,0-2.6,0.1-3.5,0.2v11c0.7,0.1,1.6,0.2,2.9,0.2
	c0.8,0,1.5-0.1,2.1-0.1c1.2-0.2,2.4-0.7,3.3-1.4c1-0.9,1.8-2.4,1.8-4.5C684.4,459.8,683.7,458.4,682.4,457.5z M679.3,465.6
	c-0.6,0.1-1,0.1-1.6,0.1c-0.3,0-0.7,0-0.9,0v-7.3c0.2-0.1,0.7-0.1,1.2-0.1c0.3,0,0.8,0,1.2,0.1c1.5,0.5,2.4,1.5,2.4,3.5
	C681.7,463.9,680.8,465.2,679.3,465.6z M704.7,456.5h-2.6v11.2h7.2v-2.1h-4.6L704.7,456.5L704.7,456.5z M575.8,462.4
	c1-0.3,2-1.4,2-2.7c0-1.1-0.3-1.9-1.1-2.4c-0.7-0.6-1.7-0.9-3-0.9c-0.2,0-0.4,0-0.7,0c-1.3,0-2.6,0.1-3.5,0.2v11.1h2.6v-4.4h0.8
	c0.3,0,0.6,0,0.8,0.1c0.6,0.1,0.9,0.7,1.1,1.7c0.3,1.3,0.7,2.2,0.8,2.6h2.7c-0.2-0.5-0.6-1.9-0.9-3.2
	C577,463.5,576.6,462.7,575.8,462.4z M573.7,461.3c-0.1,0-0.3,0.1-0.6,0.1h-1v-3.2c0.2,0,0.6,0,1.2,0c0.1,0,0.2,0,0.3,0
	c1,0.1,1.6,0.6,1.6,1.5C575.2,460.7,574.7,461.2,573.7,461.3z M624.9,462.9c0,1.9-0.8,2.8-2.1,2.8s-2.1-0.9-2.1-2.8v-6.4H618v6.2
	c0,3.5,1.7,5.1,4.6,5.1c3,0,4.8-1.6,4.8-5.1v-6.2h-2.6v6.4H624.9z M578.7,458.5h3v9.1h2.6v-9.1h3.1v-2h-8.8L578.7,458.5L578.7,458.5
	z M562.7,456.5h-1.6l-3.5,11.2h2.7l0.8-2.9h1.6h1.7l0.9,2.9h2.8l-3.6-11.2H562.7z M562.7,462.9h-1.2l0.7-2.5
	c0.2-0.6,0.3-1.5,0.6-2.1v0.1c0.2,0.6,0.5,1.5,0.6,2l0.8,2.5H562.7z M591.5,462.9h4.1v-2h-4.1v-2.4h4.5v-2h-7.1v11.2h7.3v-2.1h-4.7
	V462.9L591.5,462.9z M547,462.9h4.1v-2H547v-2.4h4.4v-2h-6.8v11.2h7.2v-2.1H547V462.9z M612.1,456.5l-1.2,3.7
	c-0.3,1.2-0.8,2.7-1.1,4c-0.3-1.2-0.7-2.7-1-4l-1.1-3.7h-3.5l-0.7,11.2h2.4l0.2-4.3c0.1-1.4,0.1-3.2,0.2-4.6c0.3,1.5,0.7,3,1,4.4
	l1.2,4.3h2l1.5-4.4c0.4-1.2,0.9-2.8,1.2-4.3h0.1c0,1.7,0,3.3,0.1,4.6l0.1,4.3h2.6l-0.7-11.2H612.1z M624,396.7
	c0,0.8,0.3,1.6,0.9,2.2c0.6,0.6,1.4,0.9,2.1,0.9l0,0c1,0,2-0.5,2.7-1.2s1.2-1.7,1.2-2.7c0-0.8-0.3-1.6-0.8-2.2s-1.3-0.9-2.1-0.9
	c-1.1,0-2.1,0.4-2.8,1.2C624.4,394.7,624,395.6,624,396.7z M704.5,404.4l-1.3,0.6c-4.2,1.9-8.3,3.6-12.2,5l-0.9,0.3l1,3.3l1-0.4
	c2.1-0.8,3.5-1.2,3.8-1.2c0.1,0,0.1,0,0.1,0s0,0.2,0,0.3c0,0.1-0.3,1.5-1.1,3.5s-2,4.8-3.6,8.4c-2.5,5.6-4.2,9.5-4.9,11.9
	c-0.8,2.4-1.2,5-1.4,7.9l-0.1,1.4l1.3-0.4c2-0.6,5.7-2.2,11.2-4.8l0.9-0.4l-1.4-3l-0.9,0.4c-1.4,0.6-2.4,0.8-2.6,0.8
	c-0.3,0-0.4-0.1-0.4-0.1s0-0.1,0-0.2s0.2-1,0.6-2.1c0.4-1.2,1.1-2.8,2-4.8c3.8-8.6,6.2-14.3,7.2-17.1c1-2.9,1.6-5.3,1.6-7.2
	c0-0.1,0-0.3,0-0.5L704.5,404.4z M617.6,430.7c3.8-8.6,6.2-14.3,7.2-17.1c1-2.9,1.6-5.3,1.6-7.2c0-0.1,0-0.3,0-0.5v-1.5l-1.3,0.6
	c-4.2,1.9-8.3,3.6-12.2,5l-0.9,0.3l1,3.3l1-0.4c2.1-0.8,3.5-1.2,3.8-1.2c0.1,0,0.1,0,0.1,0s0,0.2,0,0.3c0,0.1-0.3,1.5-1.1,3.5
	c-0.8,2-2,4.8-3.6,8.4c-2.5,5.6-4.2,9.5-4.9,11.9c-0.8,2.4-1.2,5-1.4,7.9l-0.1,1.4l1.3-0.4c2-0.6,5.7-2.2,11.2-4.8l0.9-0.4l-1.4-3
	l-0.9,0.4c-1.4,0.6-2.4,0.8-2.6,0.8c-0.2,0-0.3,0-0.3,0c-0.1,0-0.1,0-0.1,0s0-0.1,0-0.2s0.2-1,0.6-2.1
	C616,434.4,616.7,432.8,617.6,430.7z M708.3,393.6c-0.5-0.6-1.3-0.9-2.1-0.9c-1,0-2,0.4-2.8,1.2c-0.8,0.7-1.2,1.7-1.2,2.8
	c0,0.8,0.3,1.6,0.9,2.2c0.6,0.6,1.4,0.9,2.2,0.9l0,0c1,0,2-0.5,2.7-1.2c0.7-0.8,1.2-1.7,1.2-2.7C709.1,395,708.8,394.2,708.3,393.6z
	 M514.4,406.4c-0.5-0.4-1.1-0.5-1.7-0.5c-2,0-4.3,0.3-6.8,0.8c-9.5,1.9-18,6.5-25.4,13.9c-3,3-5.4,6.2-7.2,9.6
	c-1.8,3.4-2.7,6.6-2.7,9.7c0,1.4,0.3,2.6,1,3.6c0.7,0.9,1.9,1.4,3.1,1.4c2.9,0,6.3-1.8,10.9-5.2c2.4-1.8,4.8-3.9,7.1-6.3
	c-1.9,4.7-2.9,8.1-2.9,10.2c0,0.1,0,0.2,0,0.3l0.1,1.2l1.1-0.3c2.6-0.6,5-1.5,7.3-2.5s4.2-2.1,5.7-3.2l0.7-0.6l-1.8-2.7l-0.8,0.5
	c-1,0.6-1.8,1-2.5,1.3c-0.6,0.3-1,0.4-1,0.4c-0.1,0-0.2,0-0.2,0s0-0.1,0-0.2c0-0.2,0.3-1.5,1.1-3.4c0.8-1.9,1.9-4.6,3.4-8l0.9-2
	l-2.1,0.7c-1,0.3-1.9,0.6-2.7,0.8c2.1-3.1,3.1-5.9,3.1-8.6c0-1.9-0.6-3.5-1.8-4.5c2-0.4,4.1-0.7,6.2-0.7s4.1,0.1,6.1,0.4l0.7,0.1
	l0.3-0.6c0.9-1.7,1.3-2.8,1.4-3.8C515.2,407.4,514.9,406.8,514.4,406.4z M490.1,430.1c-2.1,2.7-4.2,4.9-6.3,6.6
	c-2.1,1.8-3.7,2.5-4.4,2.5c-0.6,0-0.9-0.2-1.2-0.5c-0.3-0.4-0.5-1.1-0.5-2.2c0-2.6,0.8-5.3,2.3-8.1c3.1-5.7,7.6-10.1,13.5-13.3
	c1.5-0.8,3-1.5,4.7-2C496.9,419.2,494.2,424.8,490.1,430.1z M640.5,443.8l-0.1,1.3l1.3-0.3c5-1,9.3-2.8,12.9-5.5l0.7-0.5l-1.7-2.9
	l-0.9,0.6c-1.4,1.1-2.6,1.5-3.3,1.5c-0.1,0-0.2,0-0.2,0l0,0l0,0l0,0l0,0c0,0,0-0.1,0-0.3c0,0,0.1-0.5,0.4-1.2
	c0.8-2.2,3-6.8,6.4-13.5c2.4-4.8,4-8,4.7-9.7s1.2-3.1,1.2-4.3c0-0.9-0.2-1.8-0.8-2.4s-1.4-0.9-2.3-0.9c-3.3,0-7.4,2.5-12.7,7
	c-2.4,2.1-4.9,4.6-7.7,7.5c2.7-6.4,4-10.6,4-13c0-0.2,0-0.5-0.1-0.9l-0.1-1.4l-1.2,0.6c-3.5,1.6-7.4,3-11.6,4.2l-0.8,0.2l0.6,3.4
	l1-0.3c1.8-0.5,3-0.8,3.1-0.8c0.1,0,0.2,0,0.2,0l0,0c0,0,0.1,0.2,0.1,0.5c0,0.4-0.3,1.7-1,3.7s-1.7,4.8-3,8.2
	c-2.7,6.9-5.5,13.2-8.2,18.8l-1.2,2.4l2.4-1c2.6-1.1,4.5-1.8,5.7-2.1l0.5-0.1l0.2-0.5c3.1-7.1,6.8-13.3,11.1-18.5
	c2.4-2.9,5.1-5.6,7.9-8c1.4-1.2,2.6-2.1,3.5-2.7s1.5-0.8,1.7-0.8c0,0,0,0.1,0,0.2s-0.4,1.4-1.3,3.2
	C645,429.2,641.1,438.5,640.5,443.8z M685.4,424.8l-0.9-1.5l-0.8,1.5c-1.8,3.3-3,5.5-3.6,6.3c-3.8,5.5-7.8,8-11.8,8
	c-1.2,0-1.9-0.3-2.4-1c-0.6-0.7-0.9-1.6-0.9-3c0-2.2,0.7-5.1,2.2-8.5s3.3-6.7,5.6-9.7c1.4-1.8,2.8-3,4.1-3.7s3-1.1,4.9-1.1
	c1,0,1.6,0.1,1.9,0.3c0.3,0.2,0.2,0.1,0.2,0.3c0,0.5-0.6,2.4-1.8,5l-0.7,1.4h3.7l7.2-13.5l-1.5-0.1c-0.9-0.1-1.5-0.1-1.9-0.1
	c-4.6,0-9.4,1.7-14.2,5c-4.9,3.3-9.1,7.6-12.5,12.9c-3.3,5-4.9,9.8-4.9,14.5c0,2.3,0.5,4.3,1.7,5.6c1.2,1.4,3,2,5.1,2l0,0
	c4.6,0,9.4-2.5,14.8-7.3c4.6-4.1,7.1-7.7,7.1-11.1C686,426.2,685.8,425.4,685.4,424.8z M473.1,423.4c3.4-6.5,5.2-12.9,5.2-19.3
	c0-3.7-0.8-7.2-2.3-10.2s-3.7-5.5-6.5-7.4c-5.1-3.3-11.9-5-20.6-5c-3.6,0-10.9,0.5-22.2,1.5c-3.5,0.3-6.3,0.4-8.4,0.4
	c-3,0-5.1-0.2-5.9-0.4c-0.4-0.1-0.7-0.3-0.8-0.4c-0.1-0.1-0.1-0.2-0.1-0.4c0-0.7,0.1-1.9,0.5-3.5l0.2-1l-3.6-0.5l-0.2,0.9l-0.1,0.7
	c-1,4.4-1.8,7.7-2.4,10l-0.2,0.9l0.8,0.3c2.5,0.9,5.2,1.3,8.3,1.3c3.1,0,6-0.1,8.7-0.4c14-1.3,22.6-2,25.4-2c9.8,0,16.4,2.5,20,7.3
	c2.3,3.1,3.5,6.6,3.5,10.8c0,6.2-1.8,12.5-5.5,18.8c-2.5,4.2-5.6,7.4-9.5,9.9c-3.9,2.4-7.9,3.6-12.1,3.6c-6.9,0-13.1-3.8-18.8-11.8
	c-1.7-2.4-3.3-4.9-4.9-7.7c7.9-2.9,17.8-7,29.7-12.3c1.7-0.8,3.1-1.3,4.1-1.7c0.5-0.2,0.9-0.3,1.2-0.4c0.1,0,0.3-0.1,0.3-0.1h0.1
	c0.3,0,0.2,0,0.2,0s0.1,0.2,0.1,0.6c0,0.1-0.2,1-0.6,2.2c-0.4,1.3-1,3.1-1.8,5.3c-2.3,6.5-3.6,11.1-4,14.1l-0.2,1.5l1.5-0.5
	c4.1-1.3,7.7-2.6,10.8-3.7l0.8-0.3l-1-3.5l-1,0.3c-1,0.3-1.7,0.5-2.1,0.5c-0.5,0-0.7-0.1-0.7-0.1s0,0,0-0.2c0-0.3,0.2-1.4,0.7-3
	s1.2-3.8,2.2-6.6c2.2-6.1,3.3-10.1,3.3-12.3c0-0.5-0.1-1-0.3-1.5l-0.4-1l-2.3,1.1c-14.9,6.9-29.1,13-42.6,18.2
	c-3.2-5.6-5.3-9.1-6.3-10.5c-2.5-3.7-4.9-6.4-7.2-8.1c-2.3-1.7-4.9-2.5-7.6-2.5c-4.2,0-8.1,1.4-11.8,4.2c-4.3,3.2-6.6,7.6-6.5,13
	c0,4.2,1.5,7.7,4.5,10.3c2.8,2.4,6.5,3.6,10.8,3.6c4.2,0,10.5-1.4,19-4.2c5.2,8.4,8.7,13.4,10.7,15.4c4.6,4.5,10.3,6.9,16.9,6.9l0,0
	c5.1,0,9.9-1.3,14.4-3.8C463.5,436.9,469,431.1,473.1,423.4z M397.5,422.1c-3.9,0-7-1.1-9.5-3.2s-3.6-4.7-3.7-8c0-2.9,1-5.1,3.1-7.1
	c2-1.8,4.2-2.6,6.7-2.6c2.2,0,4.3,0.7,6.3,2c2,1.4,4.1,3.6,6.2,6.6c1.3,1.8,3.3,5,5.9,9.3C406.7,421.2,401.7,422.1,397.5,422.1z
	 M574.8,434.6c0,3.5-0.2,6.8-0.5,10l-0.3,3l2-2.3c3.4-3.8,5.8-6.5,7.4-8.1c1.6-1.6,4.4-4.3,8.5-8.1c8.2-7.6,13.7-13.3,16.6-17
	c2.7-3.6,4.3-7.2,4.7-10.7c3.1-2.7,5.8-5.7,8.2-8.7c2.4-3.2,4.4-6.3,5.8-9.4l0.7-1.5l-1.6,0.1c-5.9,0.4-15.1,0.6-27.5,0.6
	c-5,0-8.9-0.1-11.5-0.3h-0.6l-0.3,0.5c-1.2,1.7-2.5,3.2-3.8,4.3l-1.7,1.5l2.3,0.3c4.7,0.5,8.2,1.1,10.5,1.7c2.2,0.6,4.4,1.6,6.5,3
	c1.9,1.2,3.4,2.6,4.6,4.3c1,1.5,1.7,3,2,4.6c-2.9,2.1-5.4,3.7-7.6,4.8c-2.3,1.2-5.4,2.5-9.2,3.9c-4.4,1.5-7.3,2.5-8.8,3.1
	c-2.2-14.5-6.8-24.9-13.9-31.2c-5.6-5-12.1-7.5-19.3-7.5c-4.2,0-8.3,0.9-12.3,2.7c-5.2,2.4-9.3,6-12.1,10.9
	c-3.1,5.2-4.7,10.8-4.7,16.9c0,8.3,2.9,15.1,8.6,20.3c4.5,4.1,9.9,6.1,16,6.1c3.7,0,7.4-0.9,10.9-2.8l0.7-0.4l-0.8-2.5l-0.9,0.3
	c-2.1,0.6-4,0.9-5.9,0.9c-2.7,0-5.6-0.5-8.5-1.5c-4.9-1.7-8.6-4.4-11.4-8.3c-2.9-4-4.4-8.7-4.4-14.1c0-6.4,1.9-11.7,5.8-16.1
	c4-4.6,9-6.8,15.2-6.8c3.7,0,7.3,0.9,10.9,2.7c4.2,2.1,7.8,5.2,10.9,9.6c4,5.7,6.7,13.6,8,23.8c-5.2,2.4-9.4,5.4-12.7,9
	c-3.4,3.7-5.2,7.4-5.2,11.2c0,1.8,0.4,3.3,1.4,4.4s2.5,1.7,4.2,1.8l1.8,0.1l-0.8-1.6c-1.1-2.1-1.6-4-1.6-5.8c0-3.4,1.4-6.4,4.4-9
	c2.5-2.3,5.5-4.1,9.1-5.7C574.6,425.5,574.8,429.9,574.8,434.6z M605.1,387.8l5.8-0.1c3.9-0.1,6.7-0.1,8.4-0.1
	c-1.7,3.6-3.8,6.6-6.5,9.3c-0.5-2-1.6-3.9-3.1-5.5C608.4,390.1,606.9,388.9,605.1,387.8z M593,415.1L593,415.1L593,415.1
	c4.2-1.7,8.2-4,11.9-6.9c-0.8,1.7-1.8,3.4-3.2,5.1c-2.2,2.8-6,6.8-11.4,12c-3.9,3.7-6.9,6.6-8.9,8.7c0.1-2.2,0.2-4.7,0.2-7.4
	c0-2.9-0.1-5.4-0.3-7.6C584,418.1,587.9,416.8,593,415.1z"/>
</svg>
